Coordinates
version=1
nRows=65
nColumns=12
inDegrees=yes

Units are S.I. units (second, meters, Newtons, ...)
Angles are in degrees

endheader
time	SC_y	SC_z	SC_x	AC_y	AC_z	AC_x	GH_y	GH_z	GH_yy	EL_x	PS_y
       0.0              -17.07         -0.915          26.23           52.3         -4.116          6.699          41.07          44.47          97.67          34.41          104.7
   0.02975              -17.07        -0.9105          26.24           52.3         -4.115            6.7          41.05          44.47          97.63          34.42          104.6
   0.05951              -17.08        -0.9057          26.25          52.29         -4.114          6.701          41.03          44.47          97.59          34.44          104.6
   0.08926              -17.09        -0.9005          26.26          52.29         -4.112          6.702          41.01          44.47          97.54          34.46          104.6
     0.119              -17.09        -0.8951          26.27          52.29         -4.111          6.703          40.99          44.47           97.5          34.47          104.6
    0.1488               -17.1        -0.8893          26.27          52.28         -4.109          6.704          40.96          44.46          97.44          34.49          104.6
    0.1785              -17.11        -0.8831          26.28          52.28         -4.107          6.706          40.94          44.46          97.39          34.51          104.6
    0.2083              -17.12        -0.8764           26.3          52.28         -4.105          6.707          40.91          44.46          97.33          34.53          104.6
     0.238              -17.13        -0.8693          26.31          52.27         -4.103          6.709          40.89          44.45          97.27          34.56          104.6
    0.2678              -17.14        -0.8617          26.32          52.27         -4.101          6.711          40.86          44.45           97.2          34.58          104.6
    0.2975              -17.15        -0.8535          26.33          52.26         -4.099          6.713          40.83          44.45          97.13          34.61          104.6
    0.3273              -17.16        -0.8447          26.35          52.25         -4.096          6.715          40.79          44.44          97.05          34.63          104.6
    0.3571              -17.17        -0.8352          26.36          52.25         -4.094          6.717          40.75          44.44          96.96          34.66          104.6
    0.3868              -17.19        -0.8249          26.38          52.24         -4.091          6.719          40.71          44.44          96.87           34.7          104.6
    0.4166               -17.2        -0.8138           26.4          52.23         -4.088          6.722          40.67          44.43          96.77          34.73          104.5
    0.4463              -17.22        -0.8018          26.42          52.23         -4.084          6.725          40.62          44.43          96.67          34.77          104.5
    0.4761              -17.24        -0.7887          26.44          52.22         -4.081          6.728          40.57          44.42          96.55          34.81          104.5
    0.5058              -17.26        -0.7744          26.46          52.21         -4.077          6.731          40.52          44.41          96.42          34.86          104.5
    0.5356              -17.28        -0.7589          26.49           52.2         -4.072          6.734          40.46          44.41          96.29          34.91          104.5
    0.5653               -17.3        -0.7418          26.51          52.19         -4.067          6.738          40.39           44.4          96.13          34.96          104.5
    0.5951              -17.33        -0.7231          26.54          52.18         -4.062          6.743          40.32          44.39          95.97          35.03          104.4
    0.6248              -17.35        -0.7025          26.58          52.16         -4.056          6.747          40.24          44.38          95.79          35.09          104.4
    0.6546              -17.38        -0.6797          26.61          52.15          -4.05          6.752          40.15          44.37          95.58          35.16          104.4
    0.6844              -17.42        -0.6545          26.65          52.13         -4.043          6.758          40.05          44.36          95.36          35.25          104.4
    0.7141              -17.46        -0.6265           26.7          52.11         -4.035          6.765          39.94          44.35          95.11          35.34          104.3
    0.7439               -17.5        -0.5952          26.75          52.09         -4.026          6.772          39.82          44.34          94.83          35.44          104.3
    0.7736              -17.55        -0.5602          26.81          52.07         -4.016           6.78          39.68          44.32          94.52          35.55          104.2
    0.8034               -17.6        -0.5208          26.87          52.04         -4.005          6.789          39.53           44.3          94.17          35.67          104.2
    0.8331              -17.66        -0.4762          26.94          52.01         -3.992          6.799          39.36          44.28          93.78          35.82          104.1
    0.8629              -17.73        -0.4256          27.02          51.98         -3.978          6.811          39.16          44.26          93.33          35.98          104.1
    0.8926              -17.81        -0.3679          27.12          51.94         -3.961          6.824          38.93          44.24          92.81          36.17          104.0
    0.9224              -17.89        -0.3017          27.22           51.9         -3.943          6.839          38.68          44.21          92.23          36.38          103.9
    0.9521               -18.0        -0.2252          27.35          51.85         -3.921          6.857          38.38          44.18          91.55          36.62          103.9
    0.9819              -18.12        -0.1364          27.49          51.79         -3.896          6.877          38.03          44.14          90.76          36.91          103.8
     1.012              -18.26        -0.0324          27.66          51.72         -3.866          6.901          37.63          44.09          89.84          37.24          103.6
     1.041              -18.42        0.09017          27.86          51.64         -3.832          6.929          37.15          44.04          88.75          37.64          103.5
     1.071              -18.62         0.2358          28.09          51.55          -3.79          6.962          36.58          43.98          87.45           38.1          103.3
     1.101              -18.86         0.4104          28.37          51.44         -3.741          7.002           35.9           43.9           85.9          38.67          103.1
     1.131              -19.14         0.6216          28.71           51.3         -3.681          7.051          35.08          43.81          84.03          39.34          102.9
      1.16              -19.49         0.8797          29.13          51.13         -3.608           7.11          34.08           43.7          81.74          40.17          102.6
      1.19              -19.92          1.198          29.64          50.92         -3.518          7.183          32.84          43.56          78.91          41.19          102.2
      1.22              -20.46          1.595          30.29          50.66         -3.405          7.274          31.29          43.39          75.38          42.47          101.8
      1.25              -21.13          2.095          31.09          50.34         -3.263          7.388          29.34          43.17          70.94          44.08          101.2
     1.279              -21.99          2.731          32.12          49.92         -3.083          7.534          26.87           42.9           65.3          46.12          100.5
     1.309              -23.09          3.545          33.43          49.39         -2.852           7.72           23.7          42.54          58.07          48.73          99.52
     1.339               -24.5           4.59          35.12          48.71         -2.556          7.959          19.63          42.09          48.79          52.09          98.32
     1.369               -26.3          5.924          37.27          47.84         -2.178          8.265          14.43          41.51          36.95          56.37          96.78
     1.398              -28.57          7.602          39.98          46.75         -1.703          8.649          7.902          40.79          22.05          61.76          94.85
     1.428              -31.33          9.646          43.28          45.41         -1.124          9.118       -0.05911           39.9            3.9          68.33          92.49
     1.458              -34.53          12.02          47.11          43.87        -0.4521           9.66         -9.287          38.88         -17.14          75.94          89.76
     1.488               -38.0          14.58          51.25          42.19         0.2751          10.25         -19.28          37.77         -39.92          84.18          86.81
     1.517              -41.46          17.15          55.39          40.52          1.002          10.84         -29.27          36.65         -62.71          92.42          83.85
     1.547              -44.66          19.52          59.22          38.97          1.674          11.38          -38.5          35.63         -83.75          100.0          81.13
     1.577              -47.42          21.56          62.52          37.64          2.253          11.85         -46.46          34.74         -101.9          106.6          78.77
     1.607              -49.69          23.24          65.22          36.55          2.728          12.23         -52.99          34.02         -116.8          112.0          76.84
     1.637              -51.49          24.57          67.38          35.68          3.107          12.54         -58.19          33.44         -128.6          116.3           75.3
     1.666               -52.9          25.62          69.06          34.99          3.403          12.78         -62.25          32.99         -137.9          119.6           74.1
     1.696               -54.0          26.43          70.38          34.46          3.633          12.96         -65.42          32.64         -145.1          122.2          73.16
     1.726              -54.86          27.07           71.4          34.05          3.813          13.11          -67.9          32.36         -150.8          124.3          72.43
     1.756              -55.54          27.57          72.21          33.72          3.955          13.22         -69.85          32.14         -155.2          125.9          71.85
     1.785              -56.07          27.97          72.85          33.46          4.068          13.31         -71.39          31.97         -158.8          127.2           71.4
     1.815               -56.5          28.28          73.37          33.26          4.158          13.39         -72.63          31.83         -161.6          128.2          71.03
     1.845              -56.85          28.54          73.78          33.09          4.231          13.45         -73.64          31.72         -163.9          129.0          70.73
     1.875              -57.14          28.75          74.12          32.95          4.291          13.49         -74.46          31.63         -165.8          129.7          70.49
     1.904              -57.37          28.93          74.41          32.84           4.34          13.53         -75.14          31.56         -167.3          130.3          70.29
